<?xml version="1.0" encoding="UTF-8"?>
<svg id="Layer_1" xmlns="http://www.w3.org/2000/svg" version="1.1" viewBox="0 0 325.69 77.78">
  <!-- Generator: Adobe Illustrator 29.6.1, SVG Export Plug-In . SVG Version: 2.1.1 Build 9)  -->
  <defs>
    <style>
      .st0 {
        fill: #f0ecec;
      }
    </style>
  </defs>
  <path class="st0" d="M48.23,59.33h-17v-12h2.72c-2.09-1.02-3.29-2.86-3.29-5.19,0-3.19,2.8-5.98,5.98-5.98h17.12v12.1h-2.42c2.18,1.25,2.98,3.62,2.74,5.73-.28,2.57-2.24,5.34-5.86,5.34ZM32.16,58.4h16.07c3.07,0,4.69-2.27,4.94-4.52.25-2.21-.85-4.75-3.84-5.42l-.36-.08v-1.06h3.87v-10.24h-16.2c-2.69,0-5.06,2.36-5.06,5.06s1.7,4.4,4.67,4.97l.37.07v1.07h-4.47v10.15Z"/>
  <path class="st0" d="M94.72,60.13l-8.64-4.05-8.72,3.88,1.34-9.15-3.82-3.95c-.59,4.46-4.35,7.97-8.89,8.2v4.23h-11.65v-23.14h11.09c4.51,0,8.36,3.1,9.31,7.43l6.89-1.17,4.68-8.73,4.52,8.81,6.8,1.29v-7.64h11.12c5.24,0,9.51,4.26,9.51,9.51,0,2.8-1.21,5.4-3.33,7.2l3.45,6.47h-20.75v-12.4l-4.05,4.03,1.15,9.17ZM86.09,55.07l7.5,3.51-1-7.95,5.77-5.74-8.17-1.54-3.92-7.65-4.06,7.57-8.23,1.4-.08-.46c-.7-4.12-4.27-7.12-8.48-7.12h-10.17v21.29h9.8v-4.22h.46c4.6,0,8.42-3.75,8.51-8.35l.02-1.11,5.62,5.82-1.16,7.93,7.57-3.37ZM98.54,58.4h18.28l-3.09-5.79.31-.24c2.08-1.62,3.28-4.07,3.28-6.71,0-4.73-3.85-8.58-8.58-8.58h-10.2v21.32Z"/>
  <path class="st0" d="M141.78,59.33h-23.15v-23.17h23.16l-8.66,11.57,8.66,11.6ZM119.55,58.4h20.38l-7.97-10.68,7.97-10.64h-20.38v21.32Z"/>
  <g>
    <path class="st0" d="M179.81,59.26h-19.33v-23.14h19.33v8.41l-4.6.03h4.6v6.26l-4.6.03h4.6v8.41ZM161.4,58.34h17.48v-6.56h-4.6v-1.88h4.6v-4.41h-4.6v-1.88h4.6v-6.56h-17.48v21.29Z"/>
    <path class="st0" d="M159.63,59.3h-18.19v-23.14h12.03v11.11h6.16v12.03ZM142.36,58.37h16.34v-10.18h-6.16v-11.11h-10.18v21.29Z"/>
  </g>
  <path class="st0" d="M207.99,59.28h-11.66v-23.14h12.01c3.23,0,6.09,1.75,7.29,4.46.95,2.14.66,4.44-.76,6.25,1.97,1.68,2.68,4.22,1.86,6.74-.93,2.83-3.99,5.69-8.74,5.69ZM197.25,58.35h10.74c4.28,0,7.03-2.54,7.86-5.05.76-2.32.05-4.57-1.91-6.01l-.41-.3.34-.38c1.43-1.58,1.78-3.69.92-5.63-1.05-2.38-3.58-3.91-6.44-3.91h-11.09v21.29Z"/>
  <path class="st0" d="M235.71,59.28h-18.19v-23.14h12.03v11.11h6.16v12.03ZM218.45,58.35h16.34v-10.18h-6.16v-11.11h-10.18v21.29Z"/>
  <path class="st0" d="M299.85,59.31h-11.57v-23.17h11.57c6.38,0,11.57,5.2,11.57,11.6s-5.19,11.57-11.57,11.57ZM289.21,58.39h10.64c5.87,0,10.64-4.77,10.64-10.64s-4.77-10.68-10.64-10.68h-10.64v21.32Z"/>
  <path class="st0" d="M275.2,59.84l-.22-.06.17-.43-.19.42c-1.31-.53-12.83-5.5-12.83-16.17,0-6.55,6.05-6.74,6.74-6.74,3.6,0,5.5,1.81,6.27,2.81.76-1,2.64-2.81,6.28-2.81.69,0,6.74.19,6.74,6.74,0,10.33-10.66,15.27-12.8,16.15l-.18.07ZM268.88,37.8c-.97,0-5.82.28-5.82,5.81,0,9.72,10.27,14.47,12.09,15.24,2.32-.99,12.09-5.7,12.09-15.24,0-5.53-4.84-5.81-5.82-5.81-4.32,0-5.84,2.89-5.86,2.92l-.39.81-.43-.78c-.16-.3-1.72-2.94-5.87-2.94Z"/>
  <path class="st0" d="M248.87,59.84l-.21-.06.18-.43-.19.42c-1.31-.53-12.83-5.51-12.83-16.16,0-6.55,6.05-6.74,6.74-6.74,3.6,0,5.5,1.82,6.28,2.82.78-1,2.69-2.82,6.28-2.82.69,0,6.74.19,6.74,6.74,0,10.33-10.67,15.27-12.8,16.15l-.18.07ZM242.55,37.8c-.97,0-5.82.28-5.82,5.81,0,9.72,10.27,14.47,12.09,15.24,2.32-.99,12.09-5.7,12.09-15.24,0-5.53-4.84-5.81-5.82-5.81-4.32,0-5.84,2.89-5.86,2.92l-.39.81-.43-.78c-.17-.3-1.73-2.94-5.87-2.94Z"/>
</svg>